<?xml version="1.0" encoding="utf-8"?>
<!-- Generator: Adobe Illustrator 17.0.0, SVG Export Plug-In . SVG Version: 6.00 Build 0)  -->
<!DOCTYPE svg PUBLIC "-//W3C//DTD SVG 1.1//EN" "http://www.w3.org/Graphics/SVG/1.1/DTD/svg11.dtd">
<svg version="1.1" id="图层_1" xmlns="http://www.w3.org/2000/svg" xmlns:xlink="http://www.w3.org/1999/xlink" x="0px" y="0px"
	 width="500px" height="500px" viewBox="0 0 500 500" enable-background="new 0 0 500 500" xml:space="preserve">
<path fill="#182987" d="M249.503,3.072c14.768-0.066,29.31,1.985,43.842,4.204c17.318,2.644,34.003,7.699,50.141,14.263
	c17.257,7.02,33.12,16.725,48.555,27.184c19.63,13.301,35.941,29.924,51.006,48.074c9.076,10.934,16.592,22.791,23.697,34.978
	c2.325,3.988,4.25,8.222,6.17,12.429c1.899,4.16,1.092,7.122-2.836,9.472c-17.635,10.55-31.519,25.306-45.543,39.976
	c-8.401,8.787-17.338,17.061-25.979,25.62c-4.114,4.075-8.058,8.323-12.155,12.417c-18.746,18.732-37.542,37.414-56.27,56.164
	c-5.73,5.736-11.221,11.71-16.963,17.434c-8.15,8.125-16.441,16.109-24.645,24.18c-1.544,1.519-3.115,3.052-4.404,4.779
	c-1.86,2.493-1.708,4.801,0.379,7.086c1.109,1.215,2.433,2.277,3.792,3.215c10.531,7.269,21.932,12.455,34.557,15.022
	c22.508,4.577,43.902,1.781,64.036-9.338c10.971-6.059,20.479-14.039,29.266-22.984c14.054-14.31,28.387-28.346,42.533-42.566
	c9.751-9.802,19.377-19.729,29.085-29.574c1.213-1.231,2.477-2.472,3.912-3.411c2.526-1.654,4.533-0.695,4.976,2.317
	c0.241,1.638,0.346,3.329,0.243,4.98c-0.461,7.362-0.809,14.74-1.591,22.071c-1.196,11.218-2.901,22.361-5.984,33.257
	c-6.399,22.617-14.535,44.527-26.705,64.74c-13.662,22.692-30.828,42.426-50.654,59.977c-16.091,14.245-33.552,26.344-52.945,35.592
	c-16.876,8.048-34.309,14.595-52.61,18.641c-19.554,4.323-39.306,7.164-59.374,6.676c-14.397-0.35-28.684-1.867-42.906-4.443
	c-18.238-3.303-35.811-8.547-52.814-15.819c-17.36-7.424-33.752-16.526-48.726-28.105c-12.207-9.44-24.357-18.943-34.61-30.579
	c-15.9-18.045-29.783-37.488-40.665-58.996c-0.228-0.451-0.461-0.9-0.678-1.356c-2.372-4.979-1.55-7.748,3.08-10.847
	c5.228-3.499,10.791-6.624,15.522-10.708c7.002-6.043,13.469-12.716,20.037-19.248c11.809-11.742,23.526-23.578,35.278-35.377
	c17.886-17.958,35.751-35.939,53.662-53.874c14.992-15.012,30.044-29.963,45.054-44.958c4.457-4.452,8.919-8.903,13.266-13.461
	c4.5-4.719,4.034-8.393-1.278-12.194c-9.612-6.877-20.357-11.039-31.751-13.968c-18.947-4.87-37.479-3.189-55.715,3.039
	c-15.615,5.333-28.254,15.135-39.734,26.826c-18.974,19.321-38.331,38.267-57.486,57.411c-5.478,5.474-10.79,11.115-16.243,16.614
	c-1.154,1.164-2.495,2.232-3.934,3.003c-1.792,0.96-3.286,0.263-3.921-1.688c-0.35-1.075-0.476-2.268-0.474-3.407
	c0.051-25.99,4.974-51.121,12.81-75.837c6.219-19.616,15.15-37.921,26.474-54.917c17.704-26.573,38.779-50.052,65.487-68.158
	c18.161-12.312,37.101-22.957,57.715-30.578C184.83,10.8,205.883,6.504,227.393,4.347C234.732,3.612,242.132,3.48,249.503,3.072z
	 M163.56,361.573c8.371,0.034,16.536-1.02,24.666-3.174c14.624-3.875,27.382-11.169,38.387-21.2
	c11.336-10.332,21.961-21.45,32.791-32.33c9.808-9.852,19.421-19.899,29.219-29.761c8.216-8.27,16.636-16.335,24.859-24.597
	c25.284-25.402,50.524-50.849,75.755-76.305c1.468-1.481,2.88-3.079,4.004-4.826c1.74-2.704,1.275-5.44-1.075-7.649
	c-0.891-0.838-1.911-1.549-2.922-2.246c-15.095-10.403-32.051-15.039-50.138-16.209c-13.182-0.852-25.746,2.092-38.043,6.344
	c-13.936,4.819-25.194,13.722-35.448,24.036c-16.439,16.533-32.849,33.094-49.307,49.608
	c-18.758,18.821-37.547,37.611-56.337,56.401c-17.56,17.561-35.14,35.102-52.707,52.657c-4.182,4.179-3.982,7.35,0.666,10.999
	c0.285,0.223,0.572,0.445,0.864,0.657C125.126,355.846,143.384,361.708,163.56,361.573z"/>
</svg>
